<svg xmlns="http://www.w3.org/2000/svg" width="717" height="440" fill="none"><path stroke="#E2E2E2" stroke-dasharray="8 8" stroke-linejoin="bevel" stroke-width="3" d="M31 55.5h653.5M31 157.5h653.5M31 259.5h653.5"/><g filter="url(#a)"><path stroke="#227BFF" stroke-linecap="round" stroke-linejoin="bevel" stroke-width="5" d="M33 212c21.088-18.629 30.472-30.481 40.5-55.5 11.32-18.885 15.528-14.651 22 0 9.511 27.274 15.629 25 27.5 0l13-30.5c8.807-20.595 13.478-19.168 21.5 0l28 76.5c10.886 21.728 17.973 20.521 32 0 13.426-13.689 17.363-11.188 22 0l18 37c6.627 11.576 10.373 11.823 17 0l16-32 12.5-31c10.465-17.527 15.88-11.72 25.5 0 13.784 25.625 18.908 19.412 27 0l33.5-67c18.399-39.25 27.859-45.94 41.5 0L443 149c19.414 9.74 26.946 19.446 37 41 15.813 11.192 22.593 21.716 29.5 51 9.884 27.835 16.163 23.905 28 0l62-188.5c18.118-39.005 29.698-35.504 52 0 13.642 4.34 20.837 9.027 32.5 23"/></g><rect width="32" height="32" x="549" y="140" fill="#1979FF" stroke="#fff" stroke-width="5" rx="16"/><path fill="#E2E2E2" d="M34 359a2 2 0 0 1 2-2h4a2 2 0 0 1 2 2v17h-8v-17Zm21-9a2 2 0 0 1 2-2h4a2 2 0 0 1 2 2v26h-8v-26Zm21-16a2 2 0 0 1 2-2h4a2 2 0 0 1 2 2v42h-8v-42Zm21 10a2 2 0 0 1 2-2h4a2 2 0 0 1 2 2v32h-8v-32Zm21 6a2 2 0 0 1 2-2h4a2 2 0 0 1 2 2v26h-8v-26Zm21-13a2 2 0 0 1 2-2h4a2 2 0 0 1 2 2v39h-8v-39Zm21-6a2 2 0 0 1 2-2h4a2 2 0 0 1 2 2v45h-8v-45Zm21 6a2 2 0 0 1 2-2h4a2 2 0 0 1 2 2v39h-8v-39Zm21 13a2 2 0 0 1 2-2h4a2 2 0 0 1 2 2v26h-8v-26Zm21 17a2 2 0 0 1 2-2h4a2 2 0 0 1 2 2v9h-8v-9Zm21-8a2 2 0 0 1 2-2h4a2 2 0 0 1 2 2v17h-8v-17Zm21 4a2 2 0 0 1 2-2h4a2 2 0 0 1 2 2v13h-8v-13Zm21 7a2 2 0 0 1 2-2h4a2 2 0 0 1 2 2v6h-8v-6Zm21-22a2 2 0 0 1 2-2h4a2 2 0 0 1 2 2v28h-8v-28Zm21-9a2 2 0 0 1 2-2h4a2 2 0 0 1 2 2v37h-8v-37Zm21 11a2 2 0 0 1 2-2h4a2 2 0 0 1 2 2v26h-8v-26Zm21 4a2 2 0 0 1 2-2h4a2 2 0 0 1 2 2v22h-8v-22Zm21 9a2 2 0 0 1 2-2h4a2 2 0 0 1 2 2v13h-8v-13Zm21-4a2 2 0 0 1 2-2h4a2 2 0 0 1 2 2v17h-8v-17Zm21-38a2 2 0 0 1 2-2h4a2 2 0 0 1 2 2v55h-8v-55Zm21 12a2 2 0 0 1 2-2h4a2 2 0 0 1 2 2v43h-8v-43Zm21 11a2 2 0 0 1 2-2h4a2 2 0 0 1 2 2v32h-8v-32Zm21 12a2 2 0 0 1 2-2h4a2 2 0 0 1 2 2v20h-8v-20Zm21 7a2 2 0 0 1 2-2h4a2 2 0 0 1 2 2v13h-8v-13Zm21-7a2 2 0 0 1 2-2h4a2 2 0 0 1 2 2v20h-8v-20Zm21-9a2 2 0 0 1 2-2h4a2 2 0 0 1 2 2v29h-8v-29Zm21 12a2 2 0 0 1 2-2h4a2 2 0 0 1 2 2v17h-8v-17Zm21 0a2 2 0 0 1 2-2h4a2 2 0 0 1 2 2v17h-8v-17Zm21 0a2 2 0 0 1 2-2h4a2 2 0 0 1 2 2v17h-8v-17Zm21-20a2 2 0 0 1 2-2h4a2 2 0 0 1 2 2v37h-8v-37Zm21-12a2 2 0 0 1 2-2h4a2 2 0 0 1 2 2v49h-8v-49Z"/><path fill="#000" fill-opacity=".4" d="M46.053 404.818h3.937v18.563c0 1.679-.332 3.115-.997 4.308a6.658 6.658 0 0 1-2.774 2.736c-1.193.622-2.591.933-4.193.933-1.475 0-2.8-.269-3.976-.805-1.168-.537-2.093-1.317-2.774-2.34-.674-1.031-1.01-2.284-1.01-3.758h3.924c0 .724.166 1.35.499 1.879.34.528.805.942 1.393 1.24.597.29 1.279.435 2.046.435.835 0 1.542-.175 2.122-.525.588-.358 1.035-.882 1.342-1.572.307-.69.46-1.534.46-2.531v-18.563Zm14.014 26.617c-1.244 0-2.369-.23-3.375-.691-1.005-.468-1.802-1.146-2.39-2.032-.58-.887-.87-1.973-.87-3.26 0-1.108.213-2.02.64-2.736a4.712 4.712 0 0 1 1.725-1.7 8.998 8.998 0 0 1 2.43-.946 24.205 24.205 0 0 1 2.735-.486l2.864-.333c.733-.093 1.265-.242 1.598-.447.332-.205.498-.537.498-.997v-.09c0-1.116-.315-1.981-.945-2.595-.623-.613-1.552-.92-2.788-.92-1.286 0-2.3.285-3.042.856-.733.563-1.24 1.189-1.521 1.88l-3.593-.819c.426-1.193 1.049-2.156 1.867-2.889a7.585 7.585 0 0 1 2.85-1.611 11.127 11.127 0 0 1 3.388-.511c.785 0 1.616.094 2.493.281a7.313 7.313 0 0 1 2.48.997c.776.486 1.41 1.181 1.905 2.084.495.895.742 2.058.742 3.49V431h-3.733v-2.685h-.154c-.247.495-.617.98-1.112 1.458-.494.477-1.13.873-1.905 1.189-.775.315-1.704.473-2.787.473Zm.831-3.069c1.057 0 1.96-.208 2.71-.626.76-.418 1.334-.963 1.726-1.636a4.242 4.242 0 0 0 .601-2.186v-2.532c-.136.137-.4.265-.792.384-.384.111-.823.209-1.317.294-.494.077-.976.149-1.445.217-.468.06-.86.111-1.176.154a9.407 9.407 0 0 0-2.032.473c-.606.221-1.091.541-1.458.958-.358.41-.537.955-.537 1.637 0 .946.35 1.662 1.049 2.148.698.477 1.589.715 2.671.715Zm16.693-9.025V431H73.77v-19.636h3.669v3.196h.243a5.614 5.614 0 0 1 2.122-2.506c.972-.631 2.195-.946 3.67-.946 1.337 0 2.509.281 3.515.844 1.005.554 1.785 1.38 2.34 2.48.553 1.099.83 2.459.83 4.078V431h-3.822v-12.03c0-1.423-.371-2.535-1.112-3.336-.742-.81-1.76-1.215-3.056-1.215-.886 0-1.675.192-2.365.575-.682.384-1.223.946-1.623 1.688-.393.733-.589 1.619-.589 2.659ZM177.876 431v-26.182h16.236v3.401h-12.285v7.977h11.122v3.388h-11.122V431h-3.951Zm26.729.396c-1.935 0-3.601-.413-4.999-1.24-1.389-.835-2.463-2.007-3.221-3.515-.75-1.517-1.125-3.294-1.125-5.331 0-2.012.375-3.784 1.125-5.319.758-1.534 1.815-2.731 3.17-3.592 1.364-.861 2.958-1.291 4.782-1.291 1.108 0 2.181.183 3.221.55a7.786 7.786 0 0 1 2.8 1.726c.827.784 1.479 1.802 1.956 3.055.477 1.244.716 2.757.716 4.538v1.355h-15.61v-2.863h11.864c0-1.006-.205-1.897-.614-2.672a4.644 4.644 0 0 0-1.725-1.854c-.733-.452-1.594-.677-2.583-.677-1.074 0-2.011.264-2.812.792a5.312 5.312 0 0 0-1.841 2.046 5.906 5.906 0 0 0-.639 2.723v2.237c0 1.312.23 2.429.69 3.349.469.921 1.121 1.624 1.956 2.11.835.477 1.811.716 2.927.716.725 0 1.385-.103 1.982-.307a4.295 4.295 0 0 0 1.547-.946c.434-.418.767-.933.997-1.547l3.618.652a6.563 6.563 0 0 1-1.56 2.8c-.741.792-1.675 1.41-2.8 1.853-1.116.435-2.39.652-3.822.652Zm11.893-.396v-26.182h3.822v9.729h.23c.222-.409.541-.882.959-1.419.418-.537.997-1.006 1.739-1.406.741-.41 1.721-.614 2.94-.614 1.585 0 3 .401 4.244 1.202 1.245.801 2.221 1.956 2.928 3.464.716 1.509 1.074 3.324 1.074 5.446s-.354 3.942-1.061 5.459c-.708 1.508-1.679 2.672-2.915 3.49-1.236.81-2.646 1.215-4.232 1.215-1.193 0-2.169-.201-2.927-.601-.75-.401-1.338-.87-1.764-1.407a10.605 10.605 0 0 1-.985-1.431h-.319V431h-3.733Zm3.745-9.818c0 1.38.201 2.591.601 3.63.401 1.04.98 1.854 1.739 2.442.758.58 1.687.87 2.787.87 1.142 0 2.096-.303 2.863-.908.768-.614 1.347-1.445 1.739-2.493.401-1.048.601-2.229.601-3.541 0-1.296-.196-2.459-.588-3.49-.384-1.031-.963-1.845-1.739-2.442-.767-.597-1.726-.895-2.876-.895-1.108 0-2.046.286-2.813.857-.758.571-1.333 1.368-1.726 2.39-.392 1.023-.588 2.216-.588 3.58Zm101.633-16.364h4.794l8.336 20.352h.306l8.336-20.352h4.794V431h-3.759v-18.946h-.243l-7.721 18.908h-3.12l-7.721-18.921h-.243V431h-3.759v-26.182Zm36.637 26.617c-1.245 0-2.37-.23-3.375-.691-1.006-.468-1.803-1.146-2.391-2.032-.579-.887-.869-1.973-.869-3.26 0-1.108.213-2.02.639-2.736a4.706 4.706 0 0 1 1.726-1.7 8.992 8.992 0 0 1 2.429-.946 24.217 24.217 0 0 1 2.736-.486l2.863-.333c.733-.093 1.266-.242 1.598-.447.333-.205.499-.537.499-.997v-.09c0-1.116-.316-1.981-.946-2.595-.622-.613-1.551-.92-2.787-.92-1.287 0-2.301.285-3.043.856-.733.563-1.24 1.189-1.521 1.88l-3.592-.819c.426-1.193 1.048-2.156 1.866-2.889a7.587 7.587 0 0 1 2.851-1.611 11.127 11.127 0 0 1 3.388-.511c.784 0 1.615.094 2.493.281a7.315 7.315 0 0 1 2.48.997c.775.486 1.41 1.181 1.905 2.084.494.895.741 2.058.741 3.49V431h-3.733v-2.685h-.153c-.247.495-.618.98-1.113 1.458-.494.477-1.129.873-1.904 1.189-.776.315-1.705.473-2.787.473Zm.831-3.069c1.056 0 1.96-.208 2.71-.626.758-.418 1.334-.963 1.726-1.636.4-.682.601-1.411.601-2.186v-2.532c-.137.137-.401.265-.793.384-.384.111-.822.209-1.317.294-.494.077-.976.149-1.444.217-.469.06-.861.111-1.177.154a9.4 9.4 0 0 0-2.032.473c-.605.221-1.091.541-1.458.958-.358.41-.537.955-.537 1.637 0 .946.35 1.662 1.049 2.148.699.477 1.589.715 2.672.715Zm12.87 2.634v-19.636h3.695v3.119h.204c.358-1.057.989-1.888 1.892-2.493.912-.614 1.944-.92 3.094-.92a16.325 16.325 0 0 1 1.624.089v3.656a7.012 7.012 0 0 0-.818-.14 7.765 7.765 0 0 0-1.177-.09c-.903 0-1.708.192-2.416.576a4.274 4.274 0 0 0-1.662 1.572c-.409.665-.613 1.423-.613 2.276V431h-3.823Zm98.874 0h-4.193l9.422-26.182h4.564L490.303 431h-4.194l-7.402-21.426h-.204L471.088 431Zm.703-10.253h13.602v3.324h-13.602v-3.324Zm20.906 17.617v-27h3.733v3.183h.319c.222-.409.541-.882.959-1.419.418-.537.997-1.006 1.739-1.406.741-.41 1.721-.614 2.94-.614 1.585 0 3 .401 4.244 1.202 1.245.801 2.22 1.956 2.928 3.464.716 1.509 1.074 3.324 1.074 5.446s-.354 3.942-1.061 5.459c-.708 1.508-1.679 2.672-2.915 3.49-1.236.81-2.646 1.215-4.232 1.215-1.193 0-2.169-.201-2.927-.601-.75-.401-1.338-.87-1.764-1.407a10.605 10.605 0 0 1-.985-1.431h-.23v10.419h-3.822Zm3.745-17.182c0 1.38.201 2.591.601 3.63.401 1.04.98 1.854 1.739 2.442.758.58 1.687.87 2.787.87 1.142 0 2.096-.303 2.863-.908.767-.614 1.347-1.445 1.739-2.493.401-1.048.601-2.229.601-3.541 0-1.296-.196-2.459-.588-3.49-.384-1.031-.963-1.845-1.739-2.442-.767-.597-1.726-.895-2.876-.895-1.108 0-2.046.286-2.813.857-.758.571-1.334 1.368-1.726 2.39-.392 1.023-.588 2.216-.588 3.58ZM513.835 431v-19.636h3.695v3.119h.205c.357-1.057.988-1.888 1.892-2.493.912-.614 1.943-.92 3.093-.92a16.325 16.325 0 0 1 1.624.089v3.656a7.012 7.012 0 0 0-.818-.14 7.762 7.762 0 0 0-1.176-.09c-.904 0-1.709.192-2.417.576a4.287 4.287 0 0 0-1.662 1.572c-.409.665-.613 1.423-.613 2.276V431h-3.823Zm97.041-26.182h4.794l8.336 20.352h.306l8.336-20.352h4.794V431h-3.759v-18.946h-.243l-7.721 18.908h-3.12l-7.721-18.921h-.243V431h-3.759v-26.182Zm36.637 26.617c-1.245 0-2.37-.23-3.375-.691-1.006-.468-1.803-1.146-2.391-2.032-.579-.887-.869-1.973-.869-3.26 0-1.108.213-2.02.639-2.736a4.706 4.706 0 0 1 1.726-1.7 8.992 8.992 0 0 1 2.429-.946 24.217 24.217 0 0 1 2.736-.486l2.863-.333c.733-.093 1.266-.242 1.598-.447.333-.205.499-.537.499-.997v-.09c0-1.116-.316-1.981-.946-2.595-.622-.613-1.551-.92-2.787-.92-1.287 0-2.301.285-3.043.856-.733.563-1.24 1.189-1.521 1.88l-3.592-.819c.426-1.193 1.048-2.156 1.866-2.889a7.587 7.587 0 0 1 2.851-1.611 11.127 11.127 0 0 1 3.388-.511c.784 0 1.615.094 2.493.281a7.315 7.315 0 0 1 2.48.997c.775.486 1.41 1.181 1.905 2.084.494.895.741 2.058.741 3.49V431h-3.733v-2.685h-.153c-.247.495-.618.98-1.113 1.458-.494.477-1.129.873-1.904 1.189-.776.315-1.705.473-2.787.473Zm.831-3.069c1.056 0 1.96-.208 2.71-.626.758-.418 1.334-.963 1.726-1.636.4-.682.601-1.411.601-2.186v-2.532c-.137.137-.401.265-.793.384-.384.111-.822.209-1.317.294-.494.077-.976.149-1.444.217-.469.06-.861.111-1.177.154a9.4 9.4 0 0 0-2.032.473c-.605.221-1.091.541-1.458.958-.358.41-.537.955-.537 1.637 0 .946.35 1.662 1.049 2.148.699.477 1.589.715 2.672.715Zm14.583 9.998a7.941 7.941 0 0 1-1.559-.141c-.469-.085-.818-.179-1.049-.281l.921-3.132c.699.187 1.321.268 1.866.243a2.24 2.24 0 0 0 1.445-.614c.426-.384.801-1.01 1.125-1.879l.473-1.304-7.185-19.892h4.091l4.973 15.238h.205l4.973-15.238h4.103l-8.092 22.257c-.375 1.022-.852 1.888-1.432 2.595a5.556 5.556 0 0 1-2.071 1.611c-.801.358-1.73.537-2.787.537Z"/><defs><filter id="a" width="716" height="300.889" x=".5" y=".043" color-interpolation-filters="sRGB" filterUnits="userSpaceOnUse"><feFlood flood-opacity="0" result="BackgroundImageFix"/><feColorMatrix in="SourceAlpha" result="hardAlpha" values="0 0 0 0 0 0 0 0 0 0 0 0 0 0 0 0 0 0 127 0"/><feOffset dy="8"/><feGaussianBlur stdDeviation="15"/><feComposite in2="hardAlpha" operator="out"/><feColorMatrix values="0 0 0 0 0.196078 0 0 0 0 0.356863 0 0 0 0 1 0 0 0 0.19 0"/><feBlend in2="BackgroundImageFix" result="effect1_dropShadow_2001_2"/><feBlend in="SourceGraphic" in2="effect1_dropShadow_2001_2" result="shape"/></filter></defs></svg>