<svg xmlns="http://www.w3.org/2000/svg" width="330" height="83" fill="none"><g clip-path="url(#a)"><path stroke="#2A7FFF" stroke-linecap="round" stroke-width="3" d="M2 81.175c10.328-7.625 15.14-13.31 23-24.5 5.959-8.292 9.86-12.163 19-16 8.245 4.064 12.939 7.355 21.5 16 9.948-4.1 15.006-7.838 23.5-16 10.631.625 16.337 1.68 26 5 8.748-3.61 13.035-6.85 20-14 10.75-12.98 17.1-19.77 30-29.5 7.15.315 11.48 1.66 20 7 7.908 10.03 12.416 13.08 20.5 17 12.016-1.97 17.244-5.737 24-17 8.482-9.978 13.054-9.146 21 0 12.379 11.197 17.902 10.357 26 0 9.763-6.868 15.237-5.531 25 0 11.942 5.513 17.47 6.713 26.5 7.5"/></g><defs><clipPath id="a"><path fill="#fff" d="M0 0h330v83H0z"/></clipPath></defs></svg>